<mxfile host="app.diagrams.net" modified="2020-08-21T08:12:29.174Z" agent="5.0 (Windows NT 10.0; Win64; x64) AppleWebKit/537.36 (KHTML, like Gecko) Chrome/84.0.4147.135 Safari/537.36" etag="z40EgM56nFM-8aPMIdDk" version="13.6.4" type="github">
  <diagram id="hPIleDiuPhrCfqD7RQsA" name="Page-1">
    <mxGraphModel dx="1422" dy="804" grid="1" gridSize="10" guides="1" tooltips="1" connect="1" arrows="1" fold="1" page="1" pageScale="1" pageWidth="827" pageHeight="1169" math="0" shadow="0">
      <root>
        <mxCell id="0" />
        <mxCell id="1" parent="0" />
        <mxCell id="yYPLSZPTDRPCqX-AsCRD-1" value="" style="rounded=0;whiteSpace=wrap;html=1;" vertex="1" parent="1">
          <mxGeometry x="220" y="120" width="120" height="60" as="geometry" />
        </mxCell>
        <mxCell id="yYPLSZPTDRPCqX-AsCRD-2" value="" style="endArrow=classic;html=1;" edge="1" parent="1">
          <mxGeometry relative="1" as="geometry">
            <mxPoint x="360" y="1210" as="sourcePoint" />
            <mxPoint x="460" y="1210" as="targetPoint" />
          </mxGeometry>
        </mxCell>
        <mxCell id="yYPLSZPTDRPCqX-AsCRD-3" value="Label" style="edgeLabel;resizable=0;html=1;align=center;verticalAlign=middle;" connectable="0" vertex="1" parent="yYPLSZPTDRPCqX-AsCRD-2">
          <mxGeometry relative="1" as="geometry" />
        </mxCell>
      </root>
    </mxGraphModel>
  </diagram>
</mxfile>
